<?xml version="1.0" encoding="UTF-8"?>
<svg width="145px" height="50px" viewBox="0 0 145 50" version="1.1" xmlns="http://www.w3.org/2000/svg" xmlns:xlink="http://www.w3.org/1999/xlink">
    <!-- Generator: Sketch 49.3 (51167) - http://www.bohemiancoding.com/sketch -->
    <title>logo</title>
    <desc>Created with Sketch.</desc>
    <defs>
        <path d="M16.242,1.206 L16.242,4.05 L3.858,4.05 L3.858,13.068 L14.442,13.068 L14.442,15.912 L3.858,15.912 L3.858,27 L0.348,27 L0.348,1.206 L16.242,1.206 Z M23.784,0.486 L23.784,27 L20.58,27 L20.58,0.486 L23.784,0.486 Z M36.816,8.478 C38.1480067,8.478 39.3509946,8.69999778 40.425,9.144 C41.4990054,9.58800222 42.4109962,10.2179959 43.161,11.034 C43.9110037,11.8500041 44.486998,12.8369942 44.889,13.995 C45.291002,15.1530058 45.492,16.4459929 45.492,17.874 C45.492,19.3140072 45.291002,20.6099942 44.889,21.762 C44.486998,22.9140058 43.9110037,23.8979959 43.161,24.714 C42.4109962,25.5300041 41.4990054,26.1569978 40.425,26.595 C39.3509946,27.0330022 38.1480067,27.252 36.816,27.252 C35.4839933,27.252 34.2810054,27.0330022 33.207,26.595 C32.1329946,26.1569978 31.2180038,25.5300041 30.462,24.714 C29.7059962,23.8979959 29.124002,22.9140058 28.716,21.762 C28.307998,20.6099942 28.104,19.3140072 28.104,17.874 C28.104,16.4459929 28.307998,15.1530058 28.716,13.995 C29.124002,12.8369942 29.7059962,11.8500041 30.462,11.034 C31.2180038,10.2179959 32.1329946,9.58800222 33.207,9.144 C34.2810054,8.69999778 35.4839933,8.478 36.816,8.478 Z M36.816,24.75 C38.616009,24.75 39.9599956,24.147006 40.848,22.941 C41.7360044,21.734994 42.18,20.0520108 42.18,17.892 C42.18,15.7199891 41.7360044,14.0280061 40.848,12.816 C39.9599956,11.6039939 38.616009,10.998 36.816,10.998 C35.9039954,10.998 35.1120034,11.1539984 34.44,11.466 C33.7679966,11.7780016 33.2070022,12.2279971 32.757,12.816 C32.3069977,13.4040029 31.9710011,14.1269957 31.749,14.985 C31.5269989,15.8430043 31.416,16.8119946 31.416,17.892 C31.416,18.9720054 31.5269989,19.9379957 31.749,20.79 C31.9710011,21.6420043 32.3069977,22.3589971 32.757,22.941 C33.2070022,23.5230029 33.7679966,23.9699984 34.44,24.282 C35.1120034,24.5940016 35.9039954,24.75 36.816,24.75 Z M47.076,8.766 L49.596,8.766 C49.8600013,8.766 50.0759992,8.83199934 50.244,8.964 C50.4120008,9.09600066 50.5259997,9.2519991 50.586,9.432 L54.078,21.168 C54.1740005,21.6000022 54.2639996,22.016998 54.348,22.419 C54.4320004,22.821002 54.5039997,23.225998 54.564,23.634 C54.6600005,23.225998 54.7679994,22.821002 54.888,22.419 C55.0080006,22.016998 55.1339993,21.6000022 55.266,21.168 L59.118,9.36 C59.1780003,9.1799991 59.2829992,9.0300006 59.433,8.91 C59.5830007,8.7899994 59.7719989,8.73 60,8.73 L61.386,8.73 C61.6260012,8.73 61.8239992,8.7899994 61.98,8.91 C62.1360008,9.0300006 62.2439997,9.1799991 62.304,9.36 L66.066,21.168 C66.1980007,21.5880021 66.3149995,22.001998 66.417,22.41 C66.5190005,22.818002 66.6179995,23.219998 66.714,23.616 C66.7740003,23.219998 66.8519995,22.8060022 66.948,22.374 C67.0440005,21.9419978 67.1459995,21.5400019 67.254,21.168 L70.818,9.432 C70.8780003,9.23999904 70.9919992,9.08100063 71.16,8.955 C71.3280008,8.82899937 71.5259989,8.766 71.754,8.766 L74.166,8.766 L68.262,27 L65.724,27 C65.4119984,27 65.1960006,26.796002 65.076,26.388 L61.044,14.022 C60.9479995,13.7459986 60.8700003,13.4670014 60.81,13.185 C60.7499997,12.9029986 60.6900003,12.6240014 60.63,12.348 C60.5699997,12.6240014 60.5100003,12.9059986 60.45,13.194 C60.3899997,13.4820014 60.3120005,13.7639986 60.216,14.04 L56.13,26.388 C55.9979993,26.796002 55.7520018,27 55.392,27 L52.98,27 L47.076,8.766 Z M77.028,27 L77.028,8.766 L78.936,8.766 C79.3920023,8.766 79.6799994,8.98799778 79.8,9.432 L80.034,11.304 C80.7060034,10.4759959 81.4589958,9.79800264 82.293,9.27 C83.1270042,8.74199736 84.0959945,8.478 85.2,8.478 C86.4360062,8.478 87.4349962,8.81999658 88.197,9.504 C88.9590038,10.1880034 89.5079983,11.1119942 89.844,12.276 C90.0960013,11.6159967 90.4289979,11.0460024 90.843,10.566 C91.2570021,10.0859976 91.7219974,9.69000156 92.238,9.378 C92.7540026,9.06599844 93.3029971,8.83800072 93.885,8.694 C94.4670029,8.54999928 95.057997,8.478 95.658,8.478 C96.6180048,8.478 97.4729963,8.63099847 98.223,8.937 C98.9730037,9.24300153 99.6089974,9.68999706 100.131,10.278 C100.653003,10.8660029 101.051999,11.5889957 101.328,12.447 C101.604001,13.3050043 101.742,14.2859945 101.742,15.39 L101.742,27 L98.538,27 L98.538,15.39 C98.538,13.9619929 98.2260031,12.8790037 97.602,12.141 C96.9779969,11.4029963 96.0720059,11.034 94.884,11.034 C94.3559974,11.034 93.8550024,11.1269991 93.381,11.313 C92.9069976,11.4990009 92.4900018,11.7719982 92.13,12.132 C91.7699982,12.4920018 91.485001,12.9449973 91.275,13.491 C91.0649989,14.0370027 90.96,14.6699964 90.96,15.39 L90.96,27 L87.756,27 L87.756,15.39 C87.756,13.9259927 87.4620029,12.8340036 86.874,12.114 C86.2859971,11.3939964 85.4280056,11.034 84.3,11.034 C83.507996,11.034 82.7730034,11.2469979 82.095,11.673 C81.4169966,12.0990021 80.7960028,12.6779963 80.232,13.41 L80.232,27 L77.028,27 Z M113.802,8.478 C114.894005,8.478 115.901995,8.66099817 116.826,9.027 C117.750005,9.39300183 118.547997,9.92099655 119.22,10.611 C119.892003,11.3010035 120.416998,12.1529949 120.795,13.167 C121.173002,14.1810051 121.362,15.3359935 121.362,16.632 C121.362,17.1360025 121.308001,17.4719992 121.2,17.64 C121.091999,17.8080008 120.888002,17.892 120.588,17.892 L108.456,17.892 C108.48,19.0440058 108.635999,20.0459957 108.924,20.898 C109.212001,21.7500043 109.607997,22.4609971 110.112,23.031 C110.616003,23.6010029 111.215997,24.0269986 111.912,24.309 C112.608003,24.5910014 113.387996,24.732 114.252,24.732 C115.056004,24.732 115.748997,24.6390009 116.331,24.453 C116.913003,24.2669991 117.413998,24.0660011 117.834,23.85 C118.254002,23.6339989 118.604999,23.4330009 118.887,23.247 C119.169001,23.0609991 119.411999,22.968 119.616,22.968 C119.880001,22.968 120.083999,23.069999 120.228,23.274 L121.128,24.444 C120.731998,24.9240024 120.258003,25.3409982 119.706,25.695 C119.153997,26.0490018 118.563003,26.3399989 117.933,26.568 C117.302997,26.7960011 116.652003,26.9669994 115.98,27.081 C115.307997,27.1950006 114.642003,27.252 113.982,27.252 C112.721994,27.252 111.561005,27.0390021 110.499,26.613 C109.436995,26.1869979 108.519004,25.5630041 107.745,24.741 C106.970996,23.9189959 106.368002,22.9020061 105.936,21.69 C105.503998,20.4779939 105.288,19.0860079 105.288,17.514 C105.288,16.2419936 105.482998,15.0540055 105.873,13.95 C106.263002,12.8459945 106.823996,11.889004 107.556,11.079 C108.288004,10.2689959 109.181995,9.63300231 110.238,9.171 C111.294005,8.70899769 112.481993,8.478 113.802,8.478 Z M113.874,10.836 C112.325992,10.836 111.108004,11.2829955 110.22,12.177 C109.331996,13.0710045 108.780001,14.3099921 108.564,15.894 L118.482,15.894 C118.482,15.1499963 118.380001,14.4690031 118.176,13.851 C117.971999,13.2329969 117.672002,12.6990022 117.276,12.249 C116.879998,11.7989977 116.397003,11.4510012 115.827,11.205 C115.256997,10.9589988 114.606004,10.836 113.874,10.836 Z M130.326,32.382 C130.217999,32.6220012 130.083001,32.8139993 129.921,32.958 C129.758999,33.1020007 129.510002,33.174 129.174,33.174 L126.798,33.174 L130.128,25.938 L122.604,8.766 L125.376,8.766 C125.652001,8.766 125.867999,8.83499931 126.024,8.973 C126.180001,9.11100069 126.294,9.26399916 126.366,9.432 L131.244,20.916 C131.352001,21.1800013 131.445,21.4439987 131.523,21.708 C131.601,21.9720013 131.67,22.2419986 131.73,22.518 C131.814,22.2419986 131.898,21.9720013 131.982,21.708 C132.066,21.4439987 132.161999,21.1740014 132.27,20.898 L137.004,9.432 C137.076,9.23999904 137.198999,9.08100063 137.373,8.955 C137.547001,8.82899937 137.735999,8.766 137.94,8.766 L140.496,8.766 L130.326,32.382 Z" id="path-1"></path>
        <rect id="path-3" x="0" y="0" width="40" height="16" rx="5"></rect>
    </defs>
    <g id="Flowmey" stroke="none" stroke-width="1" fill="none" fill-rule="evenodd">
        <g id="Desktop-HD" transform="translate(-55.000000, -18.000000)">
            <g id="Sidebar">
                <g id="logo" transform="translate(53.000000, 18.000000)">
                    <g id="Logo" transform="translate(0.000000, 2.000000)">
                        <g id="Color/Dark" stroke-width="1" fill-rule="evenodd" transform="translate(3.000000, 9.000000)">
                            <mask id="mask-2" fill="white">
                                <use xlink:href="#path-1"></use>
                            </mask>
                            <use id="Mask" fill="#1B1B1B" xlink:href="#path-1"></use>
                            <g id="Color-/-White" mask="url(#mask-2)" fill="#FFFFFF">
                                <g transform="translate(-8.000000, -3.000000)" id="Rectangle">
                                    <rect x="0" y="0" width="156" height="38"></rect>
                                </g>
                            </g>
                        </g>
                        <text id="The-thing-that-Athom" font-family="Lato-Regular, Lato" font-size="10" font-weight="normal" fill="#545454">
                            <tspan x="2" y="46">Flow manager for desktops</tspan>
                        </text>
                    </g>
                    <g id="Tag-/-Small" transform="translate(107.000000, 0.000000)">
                        <mask id="mask-4" fill="white">
                            <use xlink:href="#path-3"></use>
                        </mask>
                        <use id="Mask" fill="#FFCD00" fill-rule="evenodd" xlink:href="#path-3"></use>
                        <g id="Color-/-Secondary" mask="url(#mask-4)" fill="#545454" fill-rule="evenodd">
                            <rect id="Rectangle" x="0" y="0" width="40" height="16"></rect>
                        </g>
                        <g id="Text/Light-Center-Small" mask="url(#mask-4)" font-family="Lato-Regular, Lato" font-size="10" font-weight="normal">
                            <g transform="translate(0.000000, 2.000000)" id="Text">
                                <text>
                                    <tspan x="7.84" y="10" fill="#FEFEFE">BETA</tspan>
                                </text>
                            </g>
                        </g>
                    </g>
                </g>
            </g>
        </g>
    </g>
</svg>